<svg xmlns="http://www.w3.org/2000/svg" version="1.1" xmlns:xlink="http://www.w3.org/1999/xlink" width="1500" height="180" viewBox="0 0 1500 180"><svg xml:space="preserve" width="1500" height="180" data-version="2" data-id="lg_tNyQuLPvUixf0FNzMk" viewBox="0 0 571 180" x="0" y="0"><rect width="100%" height="100%" fill="transparent"></rect><circle r="59.32" fill="#f0eadc" transform="translate(93.6 90)scale(1.4819)"></circle><path fill="#f0eadc" d="M235.125 30.49q22.2 0 32.77 7.48 10.57 7.47 10.57 23.33 0 34.12-46.21 34.12h-4.23v24.92q0 3.62.46 8.3.45 4.69 1.51 7.4-1.06 1.06-2.87 1.89-1.81.83-4.08.83-3.17 0-5.13-1.81-1.97-1.81-2.12-4.83V49.97q0-3.62-.45-8.38-.45-4.75-1.51-7.77 6.34-3.33 21.29-3.33m-2.57 59.5q16.92 0 24.77-6.95 7.85-6.94 7.85-20.99 0-13.13-7.25-19.55t-23.25-6.42q-5.29 0-6.65.3v53.61z"></path><rect width="64.63" height="108.27" x="-32.31" y="-54.13" fill="none" rx="0" ry="0" transform="translate(246.65 85.13)"></rect><path fill="#f0eadc" d="M326.935 139.06q-16.31 0-25.44-10.64-9.14-10.65-9.14-29.67 0-19.03 9.14-29.67 9.13-10.65 25.44-10.65 16.46 0 25.59 10.65 9.14 10.64 9.14 29.67 0 19.02-9.14 29.67-9.13 10.64-25.59 10.64m0-5.43q10.57 0 16.16-8.99 5.58-8.98 5.58-25.89 0-16.92-5.58-25.82-5.59-8.91-16.16-8.91t-16.16 8.91q-5.58 8.9-5.58 25.82 0 16.91 5.58 25.89 5.59 8.99 16.16 8.99"></path><rect width="69.31" height="80.63" x="-34.66" y="-40.31" fill="none" rx="0" ry="0" transform="translate(327.51 99.25)"></rect><path fill="#f0eadc" d="M388.245 44.54q-3.33 0-5.67-2.34t-2.34-5.67q0-3.32 2.34-5.66 2.34-2.34 5.67-2.34 3.32 0 5.66 2.34 2.34 2.34 2.34 5.66 0 3.33-2.34 5.67t-5.66 2.34m-15.71 127.59q-8 0-12.15-3.24-4.16-3.25-4.16-8.84 0-2.87 1.74-5.06 1.74-2.19 5.06-2.19 2.57 0 3.77 2.12-1.2 2.26-1.2 5.13 0 3.78 2.11 5.29 2.11 1.51 4.98 1.51 6.19 0 8.16-6.04 1.96-6.04 1.96-17.82l.15-65.53q0-10.88-1.81-16.31 3.02-2.72 6.79-2.72 3.02 0 4.91 1.81 1.89 1.81 1.89 4.98l.15 79.88q0 11.63-5.06 19.33-5.06 7.7-17.29 7.7"></path><rect width="40.02" height="143.6" x="-20.01" y="-71.8" fill="none" rx="0" ry="0" transform="translate(376.74 100.83)"></rect><path fill="#f0eadc" d="M448.795 139.06q-16.31 0-25.45-10.64-9.13-10.65-9.13-29.67 0-19.03 9.13-29.67 9.14-10.65 25.45-10.65 16.46 0 25.59 10.65 9.14 10.64 9.14 29.67 0 19.02-9.14 29.67-9.13 10.64-25.59 10.64m0-5.43q10.57 0 16.15-8.99 5.59-8.98 5.59-25.89 0-16.92-5.59-25.82-5.58-8.91-16.15-8.91-10.57 0-16.16 8.91-5.59 8.9-5.59 25.82 0 16.91 5.59 25.89 5.59 8.99 16.16 8.99"></path><rect width="69.31" height="80.63" x="-34.66" y="-40.31" fill="none" rx="0" ry="0" transform="translate(449.37 99.25)"></rect><path fill="#f0eadc" d="M559.475 123.81q2.11.61 3.47 2.34 1.36 1.74 1.36 4.16 0 3.47-3.02 6.19-3.02 2.71-8 2.71-5.29 0-8.61-3.17-3.32-3.17-6.94-9.96l-11.33-20.09-19.03 29.45q-2.26 3.62-6.19 3.62-6.19 0-6.94-7.4 3.17-1.05 5.89-3.69 2.71-2.65 6.04-7.33l15.85-22.35-13.29-23.1q-1.81-3.17-3.32-4.53-1.51-1.36-3.32-1.36-1.96 0-3.17 1.36t-1.21 3.17q-2.26-.75-3.55-2.41-1.28-1.67-1.28-3.93 0-3.62 3.02-6.34 3.02-2.72 8.3-2.72 5.14 0 8.23 2.94 3.1 2.95 7.02 10.2l10.12 18.12 17.97-27.33q2.11-3.93 6.34-3.93 3.02 0 4.76 1.81 1.74 1.81 2.19 5.74-3.32 1.21-5.89 3.93-2.57 2.71-5.89 7.24l-15.1 20.24 14.5 25.21q3.17 5.74 6.94 5.74 1.81 0 2.95-1.43 1.13-1.44 1.13-3.1"></path><rect width="71.42" height="80.78" x="-35.71" y="-40.39" fill="none" rx="0" ry="0" transform="translate(529.1 99.32)"></rect><path fill="#2ea673" d="M89.875 52.11q14.55 0 21.48 4.9t6.93 15.3q0 22.37-30.29 22.37h-2.77v16.34q0 2.37.3 5.44.29 3.07.99 4.85-.7.7-1.89 1.24-1.18.54-2.67.54-2.08 0-3.36-1.18-1.29-1.19-1.39-3.17V64.88q0-2.37-.3-5.49-.29-3.12-.99-5.1 4.16-2.18 13.96-2.18m-1.68 39.01q11.09 0 16.23-4.56 5.15-4.55 5.15-13.76 0-8.61-4.75-12.82-4.75-4.21-15.25-4.21-3.46 0-4.35.2v35.15z" paint-order="stroke"></path><rect width="42.37" height="70.98" x="-21.18" y="-35.49" fill="none" rx="0" ry="0" transform="translate(97.6 88.1)"></rect></svg></svg>